<?xml version="1.0" encoding="utf-8"?>
<!-- Generator: Adobe Illustrator 27.5.0, SVG Export Plug-In . SVG Version: 6.00 Build 0)  -->
<svg version="1.1" id="Layer_1" xmlns="http://www.w3.org/2000/svg" xmlns:xlink="http://www.w3.org/1999/xlink" x="0px" y="0px"
	 viewBox="0 0 24 24" style="enable-background:new 0 0 24 24;" xml:space="preserve">
<g>
	<rect x="5.2" y="11.4" width="4.4" height="1.6"/>
	<path d="M21.1,6.6h-2.7V5H14v1.6H9.6V5H5.2v1.6H2.6C2.2,6.6,2,6.9,2,7.3v10.8C2,18.5,2.2,19,2.6,19h18.5c0.4,0,0.9-0.5,0.9-0.9V7.3
		C22.1,6.9,21.5,6.6,21.1,6.6z M20.4,17.4H3.6V8.2h16.8V17.4z"/>
	<polygon points="15.6,14.6 17.2,14.6 17.2,13 18.9,13 18.9,11.4 17.2,11.4 17.2,9.8 15.6,9.8 15.6,11.4 14.1,11.4 14.1,13 15.6,13 
			"/>
</g>
</svg>
