<?xml version="1.0" encoding="utf-8"?>
<!-- Generator: Adobe Illustrator 27.5.0, SVG Export Plug-In . SVG Version: 6.00 Build 0)  -->
<svg version="1.1" id="Layer_1" xmlns="http://www.w3.org/2000/svg" xmlns:xlink="http://www.w3.org/1999/xlink" x="0px" y="0px"
	 viewBox="0 0 24 24" style="enable-background:new 0 0 24 24;" xml:space="preserve">
<g>
	<path d="M5.4,5.4L4.2,4.2C2.1,6.3,1,9.1,1,12s1.1,5.7,3.2,7.7l1.2-1.1c-1.7-1.8-2.7-4.1-2.7-6.6C2.6,9.5,3.6,7.1,5.4,5.4z"/>
	<path d="M19.8,4.3l-1.2,1.1c1.7,1.8,2.7,4.1,2.7,6.6c0,2.5-0.9,4.7-2.6,6.5l1.2,1.1c2-2.1,3.1-4.8,3.1-7.6
		C23,9.1,21.9,6.4,19.8,4.3z"/>
	<path d="M12,4.7C8,4.7,4.6,8,4.6,12S8,19.4,12,19.4s7.4-3.3,7.4-7.4S16,4.7,12,4.7z M12,17.8c-3.1,0-5.8-2.6-5.8-5.8
		S8.8,6.3,12,6.3s5.8,2.6,5.8,5.8S15.1,17.8,12,17.8z"/>
	<circle cx="11.8" cy="15.3" r="0.9"/>
	<path d="M11.7,8c-0.4,0-0.9,0.4-0.9,0.9v3.8c0,0.4,0.4,0.9,0.9,0.9c0.4,0,0.9-0.4,0.9-0.9V8.8C12.6,8.3,12.2,8,11.7,8z"/>
</g>
</svg>
