<?xml version="1.0" encoding="utf-8"?>
<!-- Generator: Adobe Illustrator 27.5.0, SVG Export Plug-In . SVG Version: 6.00 Build 0)  -->
<svg version="1.1" id="Layer_1" xmlns="http://www.w3.org/2000/svg" xmlns:xlink="http://www.w3.org/1999/xlink" x="0px" y="0px"
	 viewBox="0 0 24 24" style="enable-background:new 0 0 24 24;" xml:space="preserve">
<path d="M22,14.2l-4.8-5.6V5.7c0-1.8-1.5-3.2-3.2-3.2H9.8c-1.7,0-3.1,1.4-3.1,3.1v3.2L2,14.6l0.9,0.8l3.7-4.6v8.4
	c0,1.3,1,2.4,2.4,2.4h5.7c1.3,0,2.4-1.1,2.4-2.4v-8.6L21,15L22,14.2z M8.1,8.3c3.7-0.9,6.7-0.2,7.5,0c0.1,0,0.2,0.2,0.1,0.3
	l-1.2,1.8c0,0.1-0.1,0.1-0.2,0.1c-1.9-0.4-4.4-0.2-5-0.1c-0.1,0-0.2,0-0.2-0.1L8,8.6C7.9,8.5,8,8.3,8.1,8.3z M7.9,16.8V9.7
	c0,0,0,0,0,0l0.6,1.3c0.1,0.2,0.2,0.3,0.2,0.5v3.7c0,0.2-0.1,0.3-0.2,0.5L7.9,16.8C7.9,16.9,7.9,16.9,7.9,16.8z M15.5,19.1
	c-3.5,1.2-6.5,0.3-7.3,0c-0.1,0-0.2-0.2-0.1-0.3l1.3-2.1c0,0,0.1,0,0.2,0l4.4,0c0.1,0,0.1,0,0.2,0l1.4,2.2
	C15.7,18.9,15.7,19,15.5,19.1z M16,16.8c0,0-0.1,0-0.2,0l-0.6-1.3c-0.1-0.2-0.1-0.3-0.1-0.5v-3.7c0-0.2,0-0.3,0-0.5l0.6-1.3
	c0,0,0.1,0,0.1,0L16,16.8L16,16.8z"/>
</svg>
