<?xml version="1.0" encoding="utf-8"?>
<!-- Generator: Adobe Illustrator 27.5.0, SVG Export Plug-In . SVG Version: 6.00 Build 0)  -->
<svg version="1.1" id="Layer_1" xmlns="http://www.w3.org/2000/svg" xmlns:xlink="http://www.w3.org/1999/xlink" x="0px" y="0px"
	 viewBox="0 0 24 24" style="enable-background:new 0 0 24 24;" xml:space="preserve">
<path d="M21.4,9.2h-2.6c-0.4,0-0.8,0.4-0.8,0.7v0.8h-0.7V9.9c0-0.3-0.2-0.5-0.5-0.5h-1.3L15,8.2c-0.2-0.4-0.6-0.6-1-0.6h-2V6.7h1.5
	c0.4,0,0.7-0.4,0.7-0.8c0-0.4-0.3-0.8-0.7-0.8H9c-0.4,0-0.7,0.4-0.7,0.8c0,0.4,0.3,0.8,0.7,0.8h1.7v0.8h-2c-0.4,0-0.7,0.2-1,0.6
	l-0.6,1L4.9,9.1l0,0C4.5,9.1,4,9.6,4,10v2.7H3.6V9.7c0-0.4-0.4-0.8-0.8-0.8S2,9.2,2,9.7v8c0,0.4,0.4,0.8,0.8,0.8s0.8-0.4,0.8-0.8V14
	H4v2.6c0,0.4,0.5,0.6,0.9,0.6h2.5l1.9,2c0.2,0.2,0.4,0.4,0.6,0.4h6.9c0.5,0,0.9-0.5,0.9-1v-2.2h0.4v0.9c0,0.4,0.4,0.7,0.7,0.7h2.7
	c0.4,0,0.5-0.4,0.5-0.7V9.9C22,9.6,21.8,9.2,21.4,9.2z M20.4,16.4h-0.8v-1.6h-1.4h-0.5H16v1.7V18h-5.8l-1.6-1.8l-0.5-0.6H7.4H5.6
	v-4.6h1.6h1L8.7,10l0.5-0.9h4.5l0.4,0.9l0.4,0.9l1,0l0.2,0l0,1.4h1.6h0.8h1.4v-1.5v-0.1h0.8L20.4,16.4
	C20.4,16.4,20.4,16.4,20.4,16.4z"/>
</svg>
