<?xml version="1.0" encoding="utf-8"?>
<!-- Generator: Adobe Illustrator 27.5.0, SVG Export Plug-In . SVG Version: 6.00 Build 0)  -->
<svg version="1.1" id="Layer_1" xmlns="http://www.w3.org/2000/svg" xmlns:xlink="http://www.w3.org/1999/xlink" x="0px" y="0px"
	 viewBox="0 0 24 24" style="enable-background:new 0 0 24 24;" xml:space="preserve">
<path d="M19.6,12.1c0.5-1.2,1.1-1.8,1.2-1.9l0.8,0.6l-0.1-1.8l-3.7-2l-0.2,0.9l1.8,1.2c-0.2,0.3-0.6,0.8-1,1.6
	c-0.8-0.7-1.4-1.2-1.6-1.4V2.7c0-0.4-0.3-0.7-0.7-0.7H7.4C7,2,6.7,2.3,6.7,2.7v16.8H6V22h11.4v-2.4h-0.7v-7.8
	c0.3,0.3,0.6,0.6,0.9,0.8c-0.3,1.1-0.6,2.3-0.6,3.8c0,3.6,1.8,3.9,2.4,3.9c1.4,0,2.6-1.6,2.6-3.6C21.9,15.2,20.8,13.5,19.6,12.1z
	 M15.3,8.6c0,0.4-0.3,0.7-0.7,0.7H8.7C8.3,9.3,8,9,8,8.6V4.4C8,4,8.3,3.6,8.7,3.6h5.9c0.4,0,0.7,0.3,0.7,0.7L15.3,8.6L15.3,8.6z
	 M19.3,18.5c0,0-0.1-0.1-0.2-0.2c-0.1-0.2-0.3-0.8-0.3-1.8c0-0.8,0.1-1.6,0.2-2.2c0.7,0.9,1.2,1.8,1.2,2.6
	C20.1,17.9,19.5,18.5,19.3,18.5z"/>
<polygon points="4.8,10.2 4.8,15.5 2.2,12.9 "/>
</svg>
