<?xml version="1.0" encoding="utf-8"?>
<!-- Generator: Adobe Illustrator 27.5.0, SVG Export Plug-In . SVG Version: 6.00 Build 0)  -->
<svg version="1.1" id="Layer_1" xmlns="http://www.w3.org/2000/svg" xmlns:xlink="http://www.w3.org/1999/xlink" x="0px" y="0px"
	 viewBox="0 0 24 24" style="enable-background:new 0 0 24 24;" xml:space="preserve">
<g>
	<path d="M14.2,3.5c0-0.8-0.6-1.5-1.5-1.5H5.5C4.7,2,4,2.6,4,3.5v17.3H2.3V22h13.5v-1.2h-1.6L14.2,3.5L14.2,3.5z M13,8.7
		c0,0.3-0.3,0.6-0.6,0.6H5.8c-0.3,0-0.6-0.3-0.6-0.6V3.8c0-0.3,0.3-0.6,0.6-0.6h6.5c0.3,0,0.6,0.3,0.6,0.6V8.7z"/>
	<path d="M21.6,16.4l-1.1-5.2c-0.1-0.3-0.2-0.6-0.2-0.9V8.9h0.1l0.8-1c0,0,0.3-3.3-4.4-5.1l-0.6,1c0,0,2.3,2.2,2.3,4.3L19,8.9v1.3
		c0,0.4,0.1,0.8,0.2,1.2l1.1,5.2c0.1,0.5,0,1-0.3,1.5c-0.3,0.4-0.8,0.7-1.4,0.7c-0.9,0-1.7-0.7-1.7-1.7l0.5-4.2v-0.1
		c0-1.2-1-2.3-2.2-2.3h-0.3v1.2h0.3c0.6,0,1,0.5,1,1L15.8,17v0.1c0,1.6,1.3,2.9,2.9,2.9c0.9,0,1.8-0.4,2.3-1.1
		C21.6,18.1,21.8,17.2,21.6,16.4z"/>
</g>
</svg>
