<?xml version="1.0" encoding="utf-8"?>
<!-- Generator: Adobe Illustrator 27.5.0, SVG Export Plug-In . SVG Version: 6.00 Build 0)  -->
<svg version="1.1" id="Layer_1" xmlns="http://www.w3.org/2000/svg" xmlns:xlink="http://www.w3.org/1999/xlink" x="0px" y="0px"
	 viewBox="0 0 24 24" style="enable-background:new 0 0 24 24;" xml:space="preserve">
<g>
	<path d="M11.9,18.3c1.1,0,2-0.9,2-2c0-0.7-0.2-1.4-1-1.7V14h3.6c0.4,0,0.7-0.2,0.7-0.6s-0.3-0.6-0.7-0.6h-3.6v-2h3.6
		c0.4,0,0.7-0.2,0.7-0.6c0-0.4-0.3-0.6-0.7-0.6h-3.6v-2h3.6c0.4,0,0.7-0.4,0.7-0.8c0-0.4-0.3-0.8-0.7-0.8h-3.6V3.3
		c0-0.6-0.4-1.1-1-1.1c-0.6,0-1,0.5-1,1.1v11.1c-0.8,0.4-1,1-1,1.7C9.9,17.4,10.8,18.3,11.9,18.3z"/>
	<path d="M21,18.9c-1.1,0-1.6,0.6-2.1,1c-0.4,0.4-0.6,0.5-1,0.5c-0.4,0-0.6-0.2-1-0.5c-0.4-0.4-1-1-2.1-1s-1.6,0.6-2.1,1
		c-0.4,0.4-0.6,0.5-1,0.5s-0.6-0.2-1-0.5c-0.4-0.4-1-1-2.1-1s-1.6,0.6-2.1,1c-0.4,0.4-0.6,0.5-1,0.5c-0.4,0-0.6-0.2-1-0.5
		c-0.4-0.4-1-1-2.1-1c-0.4,0-0.7,0.4-0.7,0.7c0,0.4,0.4,0.7,0.7,0.7s0.6,0.2,1,0.5c0.4,0.4,1,1,2.1,1s1.6-0.6,2.1-1
		c0.4-0.4,0.6-0.5,1-0.5c0.4,0,0.6,0.2,1,0.5c0.4,0.4,1,1,2.1,1s1.6-0.6,2.1-1c0.4-0.4,0.6-0.5,1-0.5c0.4,0,0.6,0.2,1,0.5
		c0.4,0.4,1,1,2.1,1c1.1,0,1.6-0.6,2.1-1c0.4-0.4,0.6-0.5,1-0.5c0.4,0,0.7-0.4,0.7-0.7C21.8,19.3,21.4,18.9,21,18.9z"/>
	<path d="M3.3,16.9c0.4-0.2,1.5-0.6,2.2-0.2c1,0.6,1.8,0.7,2.5,0.7c0.4,0,0.7-0.1,1-0.1c-0.1-0.3-0.2-0.7-0.2-1.1c0-0.2,0-0.3,0-0.5
		c-0.1,0-0.1,0-0.2,0c0,0-1,0.3-2.3-0.4c-1.5-0.9-3.5,0-3.7,0.2c-0.4,0.2-0.5,0.7-0.3,1C2.5,17,3,17.1,3.3,16.9z"/>
	<path d="M21.5,15.9c-2.1-0.8-2.7-0.6-3.8-0.2c-0.2,0.1-0.4,0.1-0.6,0.2c-0.9,0.3-1.5,0.1-1.5,0c-0.2-0.1-0.4-0.1-0.5-0.1
		c0,0.1,0,0.2,0,0.3c0,0.4-0.1,0.7-0.2,1.1c0.1,0.1,0.6,0.3,1.3,0.3c0.4,0,0.8,0,1.4-0.2c0.2-0.1,0.4-0.2,0.6-0.2
		c0.7-0.3,1-0.4,2.7,0.2c0.4,0.2,0.8,0,1-0.4C22.1,16.5,21.9,16.1,21.5,15.9z"/>
</g>
</svg>
