<?xml version="1.0" encoding="utf-8"?>
<!-- Generator: Adobe Illustrator 27.5.0, SVG Export Plug-In . SVG Version: 6.00 Build 0)  -->
<svg version="1.1" id="Layer_1" xmlns="http://www.w3.org/2000/svg" xmlns:xlink="http://www.w3.org/1999/xlink" x="0px" y="0px"
	 viewBox="0 0 24 24" style="enable-background:new 0 0 24 24;" xml:space="preserve">
<g>
	<circle cx="12" cy="15" r="0.8"/>
	<path d="M12,7.9c-0.4,0-0.8,0.4-0.8,0.8v3.7c0,0.4,0.4,0.8,0.8,0.8s0.8-0.4,0.8-0.8V8.7C12.8,8.2,12.4,7.9,12,7.9z"/>
	<path d="M21.4,10.8l-1.7-0.4c-0.1-0.7-0.4-1.3-0.7-2l1-1.8c0.1-0.3,0.1-0.6-0.1-0.8l-1.3-1.3c-0.2-0.2-0.5-0.3-0.8-0.1l-1.5,0.9
		c-0.6-0.4-1.1-0.6-1.8-0.8l-0.7-2C13.8,2.2,13.5,2,13.2,2h-1.8c-0.3,0-0.6,0.1-0.6,0.4l-0.5,1.8C9.6,4.3,9.1,4.5,8.5,4.7l-2-1.1
		C6.3,3.5,5.9,3.6,5.8,3.8L4.5,5C4.3,5.2,4.2,5.6,4.4,5.9l1,1.7C5,8.1,4.8,8.6,4.6,9.1L2.4,9.8C2.1,9.9,2,10.2,2,10.5v1.8
		c0,0.3,0.1,0.6,0.4,0.6l1.9,0.5c0.1,0.6,0.3,1.1,0.5,1.6l-1.1,2.1c-0.1,0.3-0.1,0.6,0.1,0.8l1.3,1.3c0.2,0.2,0.5,0.3,0.8,0.1l1.7-1
		c0.5,0.3,1,0.6,1.6,0.8l0.7,2.3c0.1,0.3,0.4,0.5,0.6,0.5h1.8c0.3,0,0.6-0.3,0.6-0.6l0.5-1.8c0.6-0.1,1.3-0.3,1.8-0.6l1.9,1
		c0.3,0.1,0.6,0.1,0.8-0.1l1.3-1.3c0.2-0.2,0.3-0.5,0.1-0.8l-0.8-1.5c0.4-0.6,0.7-1.2,0.9-1.8l2-0.6c0.3-0.1,0.5-0.4,0.5-0.6v-1.8
		C22,11.1,21.7,10.9,21.4,10.8z M11.9,18c-3.4,0-6.2-2.8-6.2-6.2s2.8-6.2,6.2-6.2s6.2,2.8,6.2,6.2S15.3,18,11.9,18z"/>
</g>
</svg>
