<?xml version="1.0" encoding="utf-8"?>
<!-- Generator: Adobe Illustrator 27.5.0, SVG Export Plug-In . SVG Version: 6.00 Build 0)  -->
<svg version="1.1" id="Layer_1" xmlns="http://www.w3.org/2000/svg" xmlns:xlink="http://www.w3.org/1999/xlink" x="0px" y="0px"
	 viewBox="0 0 24 24" style="enable-background:new 0 0 24 24;" xml:space="preserve">
<g>
	<path d="M21.3,2.7L21.3,2.7c-1-1-2.5-1-3.4,0l-8.2,8.2c-0.3,0.3-0.7,0.4-1,0.3c-1.7-0.4-3.6,0.1-5,1.5c-2.1,2-2.2,5.3-0.2,7.4
		L6,15.5l2.2-0.1l1.4,2.2L7.2,22c1.5,0.1,3-0.4,4.2-1.6c1.4-1.4,1.9-3.3,1.5-5.1c-0.1-0.4,0-0.8,0.3-1.1l8.2-8.1
		C22.2,5.2,22.2,3.6,21.3,2.7z M20.1,5.2L15,10.3c-0.4,0.4-0.9,0.4-1.3,0c-0.4-0.4-0.4-0.9,0-1.3L18.8,4c0.4-0.4,0.9-0.4,1.3,0l0,0
		C20.4,4.3,20.4,4.9,20.1,5.2z"/>
</g>
</svg>
